<?xml version="1.0" encoding="UTF-8"?>
<svg width="64.386mm" height="62.635mm" version="1.1" viewBox="0 0 64.386 62.635" xmlns="http://www.w3.org/2000/svg">
 <path d="m18.112 62.241c-0.58208-0.2097-1.0825-0.38307-1.1121-0.38526-0.05964-4e-3 -6.9703-8.5523-8.016-9.9151-0.3638-0.47411-1.8521-2.3244-3.3073-4.1118-6.169-7.5771-5.7671-6.894-5.6043-9.525 0.07652-1.2369 0.2681-2.6062 0.42574-3.0427 0.15763-0.43656 0.88408-3.4726 1.6143-6.7469s1.4423-6.4294 1.5822-7.0115c0.13998-0.58209 0.49521-2.1299 0.78941-3.4396 1.3414-5.9718 1.3876-6.0514 4.3737-7.5406 1.313-0.65484 3.9324-1.927 5.8208-2.8269 1.8885-0.89995 6.3475-3.0258 9.9091-4.7242 7.7798-3.7099 7.4615-3.6736 12.178-1.3871 1.6735 0.81137 4.531 2.1853 6.35 3.0532 1.819 0.86788 4.4384 2.1189 5.8208 2.78 1.3824 0.66112 3.7644 1.7868 5.2931 2.5015 2.9983 1.4017 4.0296 2.3189 4.4852 3.9889 0.24392 0.89408 0.61395 2.4653 2.1314 9.0501 0.28504 1.2369 0.86914 3.7372 1.298 5.5562s0.97374 4.2003 1.2108 5.2917c0.2371 1.0914 0.56563 2.4425 0.73006 3.0024 0.50213 1.7098 0.37232 3.363-0.34938 4.4494-0.35422 0.53325-2.549 3.3137-4.8774 6.1788-2.3283 2.8651-4.531 5.6016-4.8948 6.0813-3.5052 4.6213-6.5923 8.1362-7.558 8.6052-1.0278 0.49922-1.6581 0.52197-14.155 0.51087-10.7-0.01-13.272-0.081-14.138-0.39289zm14.42-14.853c1.993-0.65861 4.1321-1.8055 5.208-2.7923l0.57777-0.52995 0.15829 1.0218c0.37804 2.4404 0.25325 2.3447 3.0582 2.3447h2.5072v-12.965c0-14.742 0.01357-14.637-2.1954-17.096-2.2207-2.4725-5.3026-3.3183-11.157-3.0616-3.7392 0.16395-6.9101 0.77913-9.2875 1.8019l-1.3054 0.56157v2.2164c0 1.219 0.0817 2.2164 0.18156 2.2164s1.0226-0.23473 2.0505-0.52163c2.4182-0.67492 6.8343-1.3304 8.9629-1.3304 2.0099 0 4.3168 0.63112 5.1681 1.4139 1.22 1.1218 1.459 1.9649 1.5795 5.5722 0.10844 3.2453 0.08971 3.4049-0.37858 3.2252-0.27096-0.10398-1.6251-0.35976-3.0091-0.56841-6.4942-0.979-10.999 5e-3 -14.067 3.0735-2.0011 2.0011-2.4548 3.2402-2.4641 6.7305-0.0065 2.4258 0.08634 3.1141 0.55768 4.1334 1.179 2.5499 3.2925 4.2534 5.9416 4.9794 2.3169 0.63499 5.0434 0.52227 7.9127-0.42589zm-5.3603-4.4174c-1.3419-0.50246-1.7811-0.90498-2.3487-2.1529-0.96238-2.1156-0.37837-5.1724 1.2299-6.4375 1.6643-1.3091 6.0181-1.7402 10.183-1.0084l1.7198 0.30217v6.6092l-1.4496 0.86623c-3.1522 1.8836-7.1071 2.6552-9.3347 1.8212z" stroke-width=".26458"/>
</svg>
